<svg width="60" height="56" viewBox="0 0 60 56" fill="none" xmlns="http://www.w3.org/2000/svg">
<circle cx="30" cy="26" r="26" fill="url(#paint0_radial)"/>
<path d="M19.8559 19.9212H13.6563C15.4393 15.4067 19.146 11.8678 23.7633 10.3202C21.936 12.5735 20.5581 15.9655 19.8559 19.9212Z" fill="white" stroke="#DC773C"/>
<path d="M21.9346 19.9214C22.5125 16.9325 23.4927 14.3634 24.706 12.5214C26.0078 10.545 27.5086 9.5 29.0001 9.5C30.4916 9.5 31.9924 10.545 33.2942 12.5214C34.5075 14.3634 35.4877 16.9325 36.0656 19.9214H21.9346Z" fill="white" stroke="#DC773C"/>
<path d="M34.2357 10.3206C38.8528 11.8686 42.5607 15.4073 44.3437 19.9212H38.1442C37.442 15.9658 36.0642 12.5741 34.2357 10.3206Z" fill="white" stroke="#DC773C"/>
<path d="M35.939 32.6924C35.3294 35.5191 34.3562 37.9328 33.1726 39.6605C31.898 41.521 30.4449 42.5001 29 42.5001C27.5552 42.5001 26.1021 41.521 24.8275 39.6605C23.6439 37.9328 22.6707 35.5191 22.0611 32.6924H35.939Z" fill="white" stroke="#DC773C"/>
<path d="M23.7609 41.6781C19.3566 40.1993 15.7804 36.9113 13.9125 32.6924H19.9678C20.7003 36.382 22.0278 39.5414 23.7609 41.6781Z" fill="white" stroke="#DC773C"/>
<path d="M38.0322 32.6924H44.0875C42.2195 36.9118 38.6429 40.2017 34.2384 41.679C35.9718 39.5423 37.2996 36.3825 38.0322 32.6924Z" fill="white" stroke="#DC773C"/>
<path d="M12.5 26.0012C12.5 24.6057 12.6757 23.252 13.0006 21.957H19.5575C19.4085 23.2596 19.3307 24.6128 19.3307 26.0012C19.3307 27.6096 19.4374 29.1712 19.6349 30.6591H13.1661C12.7328 29.1809 12.5 27.6184 12.5 26.0012Z" fill="white" stroke="#DC773C"/>
<path d="M21.3644 25.9987C21.3644 24.6096 21.451 23.2561 21.613 21.957H36.3864C36.547 23.2572 36.6356 24.6126 36.6356 25.9987C36.6356 27.6083 36.5189 29.1727 36.3049 30.6565H21.6951C21.4812 29.1708 21.3644 27.6084 21.3644 25.9987Z" fill="white" stroke="#DC773C"/>
<path d="M38.6719 25.9994V25.9987C38.6719 24.6103 38.5941 23.259 38.4451 21.957H44.9996C45.3243 23.2498 45.5 24.6033 45.5 25.9987C45.5 27.6175 45.2652 29.18 44.8335 30.6565H38.3651C38.5626 29.1692 38.6696 27.6096 38.6719 25.9994Z" fill="white" stroke="#DC773C"/>
<path d="M20.7727 22.5226C20.7727 23.3134 20.1316 23.9545 19.3409 23.9545C18.5501 23.9545 17.9091 23.3134 17.9091 22.5226C17.9091 21.7319 18.5501 21.0908 19.3409 21.0908C20.1316 21.0908 20.7727 21.7319 20.7727 22.5226Z" fill="#DC773C" stroke="white"/>
<path d="M39.3182 32.9546C39.3182 33.532 38.8501 34.0001 38.2728 34.0001C37.6954 34.0001 37.2273 33.532 37.2273 32.9546C37.2273 32.3772 37.6954 31.9092 38.2728 31.9092C38.8501 31.9092 39.3182 32.3772 39.3182 32.9546Z" fill="#DC773C" stroke="white"/>
<path d="M18.4546 37.9772C18.4546 38.768 17.8135 39.4091 17.0228 39.4091C16.232 39.4091 15.5909 38.768 15.5909 37.9772C15.5909 37.1865 16.232 36.5454 17.0228 36.5454C17.8135 36.5454 18.4546 37.1865 18.4546 37.9772Z" fill="#DC773C" stroke="white"/>
<path d="M41.6363 13.2502C41.6363 14.041 40.9953 14.682 40.2045 14.682C39.4138 14.682 38.7727 14.041 38.7727 13.2502C38.7727 12.4594 39.4138 11.8184 40.2045 11.8184C40.9953 11.8184 41.6363 12.4594 41.6363 13.2502Z" fill="#DC773C" stroke="white"/>
<path d="M46.938 11.6065C52.385 7.32204 54.4307 8.03435 54.7899 8.48312C57.2703 11.5816 47.87 23.2284 33.7936 34.497C19.7173 45.7656 6.29536 52.3888 3.81495 49.2904C2.91676 48.6478 2.63543 45.8236 8.69564 39.668" stroke="#002666"/>
<defs>
<radialGradient id="paint0_radial" cx="0" cy="0" r="1" gradientUnits="userSpaceOnUse" gradientTransform="translate(30 26) rotate(90) scale(26)">
<stop stop-color="white" stop-opacity="0.5"/>
<stop offset="1" stop-color="white" stop-opacity="0"/>
</radialGradient>
</defs>
</svg>
