<?xml version="1.0" encoding="utf-8"?>
<!-- Generator: Adobe Illustrator 23.1.0, SVG Export Plug-In . SVG Version: 6.00 Build 0)  -->
<svg version="1.1" id="圖層_1" xmlns="http://www.w3.org/2000/svg" xmlns:xlink="http://www.w3.org/1999/xlink" x="0px" y="0px"
	 viewBox="0 0 62 62" style="enable-background:new 0 0 62 62;" xml:space="preserve">
<style type="text/css">
	.st0{fill:url(#SVGID_1_);}
	.st1{fill:#FFFFFF;stroke:#DC773C;stroke-miterlimit:10;}
</style>
<radialGradient id="SVGID_1_" cx="-629.9877" cy="404.6517" r="1" gradientTransform="matrix(30.9819 0 0 -31.0178 19549.2168 12582.4043)" gradientUnits="userSpaceOnUse">
	<stop  offset="0" style="stop-color:#FFFFFF"/>
	<stop  offset="1" style="stop-color:#FFFFFF;stop-opacity:0"/>
</radialGradient>
<path class="st0" d="M32.5,62l-1.3-28.3c0.1,0,0.1,0,0.2,0L31,31.3l0-0.3l0,0l4.4,30.6C34.4,61.9,33.5,62,32.5,62z M26.6,61.7
	c-1-0.1-1.9-0.3-2.9-0.6L31,31.1L18.1,59.2c-0.9-0.4-1.8-0.9-2.6-1.4l14.2-24.6c0.1,0,0.1,0.1,0.2,0.1l1-2.2l0.1-0.1l0,0l0,0l0,0
	l0,0l0,0l0,0l0,0l0,0l0,0l0,0v0l0,0l0,0l0,0l0,0h0h0l0,0l0,0l-0.2,0.1l-2.1,1.1c0,0.1,0.1,0.1,0.1,0.2L4.9,47.8
	c-0.5-0.8-1-1.7-1.5-2.6L30.9,31L1.3,39.8c-0.3-0.9-0.5-1.9-0.7-2.9l27.8-5.4c0,0.1,0,0.2,0.1,0.2l2.4-0.7l0.1,0l0,0h0l0,0l-0.1,0
	l-0.1,0H0c0,0.1,0,0.2,0,0.3L0,31c0-1,0-1.9,0.1-2.9l28.4,2.7l1.5,0l0.8,0.2h0l-0.8-0.2l0.2,0l0.6,0.2l0,0l-0.6-0.2l0.2,0L4.9,14.2
	c0.5-0.8,1.1-1.6,1.7-2.4l22.3,17.5c0,0.1-0.1,0.1-0.1,0.2l1.8,1.2l0,0l0.2,0.1L31,31l0,0l0,0l0,0l0,0l0,0l0,0l0,0l-0.1-0.1
	l-0.1-0.2h0l-1.3-1.9c-0.1,0-0.1,0.1-0.2,0.1L10.7,7.6c0.7-0.6,1.5-1.3,2.3-1.8l17.8,25l0,0l0.1,0.2l0,0l0,0l0,0l-0.1-0.2l0,0
	L26.6,0.3c1-0.1,2-0.2,2.9-0.3l1.4,28.3c-0.1,0-0.1,0-0.2,0l0.3,2.3h0l0,0.2l0,0.1l0,0l0,0v0l0,0l0,0l0,0l0,0v0l0,0l0,0h0v0l0,0v0h0
	v0l0,0l0,0l0,0l0,0v0h0l0,0l0,0l0,0h0l0,0l0,0l0,0l0,0l0,0l0,0l0,0l0,0h0h0l0,0l0,0l0,0h0l0,0l0,0v0h0l0,0l0,0l0,0h0l0,0l0,0l0,0
	l0,0l0,0l0,0v0l0,0l0,0l0,0.2l-0.5,2.3c0.1,0,0.1,0,0.2,0L26.6,61.7z M31,31L31,31L31,31z M31,31L31,31L31,31L31,31z M31,31L31,31
	L31,31L31,31z M31,31L31,31L31,31L31,31L31,31L31,31L31,31z M30.9,31L30.9,31L30.9,31L30.9,31L30.9,31z M41.2,60.3l-9.4-27.3
	l0.2,0.4c0.1,0,0.2-0.1,0.2-0.1l11.8,25.8C43,59.6,42.1,60,41.2,60.3z M49,56.3L31.1,31.1l0,0l0.1,0.1l1.4,2c0.1,0,0.1-0.1,0.2-0.1
	l18.6,21.4C50.6,55.1,49.8,55.7,49,56.3z M10.7,54.5c-0.7-0.6-1.5-1.3-2.1-2l22.4-21.4l0,0l0,0l0,0l0,0l0,0l0,0l0,0l0,0l0,0
	L10.7,54.5z M30.9,31.1l-1.8,1.8c0.1,0.1,0.1,0.1,0.2,0.2L30.9,31.1z M55.4,50.2L33.1,32.6c0-0.1,0.1-0.1,0.1-0.2l-2-1.3L31,31l0,0
	l0,0l0,0l0,0v0l0,0v0l0,0l0,0l0,0v0l0,0l0,0l0,0v0l0,0l0,0l0,0l0,0l0,0l0,0l0,0h0l0,0l0,0l0,0l0,0h0v0h0l0,0v0l0,0l0,0v0h0l0,0l0,0
	l0,0h0l0,0l0,0l0,0l0,0l0.6-2.5c-0.1,0-0.1,0-0.2,0l4-28.1c1,0.1,1.9,0.3,2.9,0.6l-7.2,29.9l0,0l12.7-28c0.9,0.4,1.8,0.9,2.6,1.4
	L32.3,28.7c-0.1,0-0.1-0.1-0.2-0.1l-1,2.1h0l-0.1,0.1L31,30.9l0,0l0.1-0.2l0.1,0l20-23.2c0.7,0.6,1.5,1.3,2.1,2L31.3,30.7l0.1,0
	L31,31l0.2-0.1l0.3-0.2l0.1,0l1.8-0.9c0-0.1-0.1-0.1-0.1-0.2L57,14.2c0.5,0.8,1,1.7,1.5,2.6l-26.9,14l0.4,0l28.7-8.5
	c0.3,0.9,0.5,1.9,0.7,2.9l-27.8,5.4c0-0.1,0-0.1-0.1-0.2l-1.4,0.4l0.5,0l-1.3,0.3l-0.1,0h0.1l1.6-0.3l0.8,0c0,0.1,0,0.2,0,0.3H62v0
	c0,1,0,2-0.1,2.9L31.1,31l0,0h0l0,0l0,0h0l0,0l0,0l0,0h0l0,0l0,0l0,0l0,0v0l0,0l0,0l0,0v0l0,0l0,0l0,0l0,0l0,0l0,0l0,0l26,16.8
	C56.5,48.6,56,49.4,55.4,50.2z M31.3,31l2.3,0.2c0-0.1,0-0.1,0-0.2H31.3z M31,31L31,31L31,31L31,31z M31,31L31,31L31,31z M31,31
	L31,31L31,31L31,31z M31,31L31,31L31,31z M31.1,31L31.1,31L31.1,31z M31,31L31,31L31,31L31,31z M31,31L31,31L31,31z M31.1,31
	L31.1,31L31.1,31L31.1,31z M32.7,29l-1.5,1.7l0,0l1.6-1.5C32.9,29.1,32.8,29,32.7,29z M59.8,42.5L33.5,32c0-0.1,0.1-0.2,0.1-0.2
	l27.2,8C60.5,40.7,60.1,41.6,59.8,42.5z M31.1,31.1L31.1,31.1L31.1,31.1z M31,31.1L31,31.1L31,31.1L31,31.1L31,31.1z M31,31L31,31
	L31,31L31,31z M31,31L31,31L31,31z M31,31L31,31L31,31L31,31z M31,31L31,31L31,31z M31,31L31,31L31,31L31,31L31,31L31,31L31,31z
	 M31,31L31,31L31,31L31,31z M31,31L31,31L31,31L31,31z M31,31L31,31L31,31L31,31L31,31L31,31L31,31L31,31L31,31z M31,31L31,31L31,31
	L31,31L31,31L31,31z M30.9,30.9l-0.3-0.2l0.1,0L30.9,30.9z M31,30.9l-0.1-0.2h0L31,30.9z M31,30.8l0-0.1h0L31,30.8z M28.5,30.2
	l-27.2-8c0.3-0.9,0.6-1.9,1-2.8L28.5,30C28.5,30.1,28.5,30.2,28.5,30.2z M29.9,28.6L18.1,2.8C19,2.4,19.9,2,20.8,1.7l9.3,26.8
	C30.1,28.5,30,28.5,29.9,28.6z"/>
<path class="st1" d="M27.6,52.5c-0.1-0.9-0.3-1.6-0.4-2.3C27,48.5,26.5,47.1,25,46c-0.9-0.7-1.7-1.4-2.6-2.2
	c-0.2-0.2-0.3-0.5-0.3-0.7c-0.4-1.7-0.4-3.6-2-4.8c-0.2-0.1-0.1-0.6-0.1-1c0.2-1.8,0.2-3.7,0.6-5.5c0.2-1.1,0.6-2.3,1.1-3.3
	c1.7-3.2,3.5-6.3,5.3-9.5c0.1-0.2,0.2-0.5,0.4-0.6c1.7-1.2,2.2-3.2,3.3-4.8c0.6-0.9,1.8-1.4,2.9-1.8c0.9-0.3,1.7-0.6,2.2-1.5
	c0.5-0.9,1.9-1,2.7-0.2c0.6,0.7,1.3,1.2,2.2,1.4c1.3,0.3,1.8,1.8,0.9,2.7c-0.8,0.9-0.9,1.8-0.7,3c0.5,2.3-0.2,4.3-1.8,6
	c-0.2,0.2-0.4,0.5-0.5,0.8c-0.8,3.5-1.6,6.9-2.3,10.4c-0.4,2.2-1.5,4.1-2.5,6c-0.2,0.3-0.3,0.5-0.6,0.7c-2.4,2-3.4,4.7-3.1,7.8
	C30.3,50.7,29.4,51.6,27.6,52.5z"/>
</svg>
