<svg width="62" height="62" viewBox="0 0 62 62" fill="none" xmlns="http://www.w3.org/2000/svg">
<path d="M32.4785 62L31.1369 33.6528C31.2109 33.6483 31.2861 33.6415 31.3612 33.6303L31.0258 31.3044L31.0135 31.0517L31.0303 31.0943L35.4065 61.7215C34.4406 61.8596 33.4556 61.9528 32.4785 62ZM26.6272 61.726C25.6557 61.5878 24.6797 61.4014 23.7262 61.1711L30.9596 31.1112L18.1306 59.2383C17.2388 58.8306 16.3559 58.3746 15.5067 57.8838L29.6841 33.3046C29.7514 33.3428 29.8221 33.3787 29.8939 33.4113L30.9024 31.1921L30.9663 31.0809L30.9764 31.0382L30.972 31.0719L30.9877 31.0438L30.9854 31.027L30.9776 31.0371L30.9854 31.0258L30.9798 31.0292L30.9809 31.0247L30.9787 31.027L30.9821 31.0191V31.018L30.9832 31.0146L30.9764 31.018L30.9787 31.0157L30.9742 31.018H30.9731H30.9529L30.9293 31.0303L30.9349 31.0292L30.7431 31.1527L28.6554 32.2388C28.6891 32.3039 28.7261 32.3679 28.7654 32.4308L4.9438 47.8174C4.41319 46.9942 3.9151 46.135 3.46526 45.2646L30.8968 31.0404L1.25867 39.7647C0.981581 38.8213 0.747123 37.8532 0.560903 36.8873L28.3997 31.5155C28.4154 31.593 28.4356 31.6705 28.4569 31.7469L30.8093 31.0505L30.9058 31.0314L30.9383 31.0146H30.9293L30.9394 31.0112L30.8654 31.0045L30.8138 31.0146H0C0 31.1258 0.00112181 31.2381 0.00336542 31.3493L0 30.9989C0 30.0341 0.0448723 29.0593 0.134617 28.1024L28.5444 30.7552L30.0375 30.7237L30.8699 30.9674H30.9136L30.0756 30.7226L30.2899 30.7181L30.926 30.9674L30.908 30.9562L30.3135 30.7181L30.53 30.7136L4.90678 14.2399C5.43515 13.4166 6.00952 12.608 6.61417 11.8375L28.9078 29.3659C28.8618 29.4254 28.8181 29.4872 28.7766 29.5512L30.5782 30.7114L30.6186 30.7102L30.807 30.8585L30.9506 30.9506L30.9652 30.9663L30.9574 30.9551L30.9798 30.9697L30.9787 30.9663L30.972 30.9562L30.9753 30.9641L30.9473 30.9416L30.8912 30.863L30.7554 30.7069H30.779L29.4497 28.8425C29.3846 28.8886 29.3218 28.938 29.2623 28.9896L10.6616 7.57648C11.3976 6.93519 12.1738 6.32197 12.9681 5.75255L30.8104 30.7069L30.8575 30.7057L30.9417 30.8899L30.9742 30.9349L30.972 30.918L30.9854 30.9506L30.9002 30.7035L30.9405 30.7024L26.5576 0.2819C27.5246 0.142635 28.5096 0.0471705 29.4867 0L30.8587 28.3461C30.7869 28.3506 30.7139 28.3573 30.641 28.3686L30.9731 30.7046H30.9753L31 30.8765L30.9888 30.9528L30.9843 30.9427L30.9877 30.9584V30.9629L30.9854 30.9551L30.9877 30.9674L30.991 30.9787L30.9865 30.9753V30.9764L30.9877 30.982L30.9865 30.9832H30.9888V30.9888L30.9865 30.9876V30.9888H30.9854V30.9921L30.9877 30.991L30.9888 30.9933L30.9865 30.9944L30.9888 30.9966V30.9989H30.9899L30.991 31L30.9978 30.9955L30.9989 31H30.9921L30.9978 31.0022L31 31L31.0022 31.0034L31.0011 31.0045L31.0022 31.0067L31.0034 31.009L31.0011 31.0112L31.0034 31.0146H31.0045H31.0056L31.0045 31.0157L31.0056 31.0168L31.0079 31.0191H31.0067L31.0079 31.0213L31.0045 31.0191V31.018H31.0034L31 31.0168L30.9921 31.0202L30.9989 31.0157H30.9966L30.991 31.0213L30.9921 31.0202L30.991 31.0225L30.9921 31.0404L31.0011 31.0247L30.9921 31.0438V31.0539L30.991 31.0449L30.972 31.0865L30.9394 31.3133L30.3965 33.582C30.4671 33.5989 30.5401 33.6135 30.6119 33.6247L26.6272 61.726ZM30.9978 31.0146L30.9989 31.0157L30.9978 31.0146ZM30.9821 31.0056V31.009L30.9843 31.0067L30.9821 31.0056ZM30.9854 31L30.9865 30.9989H30.9854V31ZM30.9753 30.9921L30.9787 30.9933L30.9809 30.9921L30.9764 30.9854L30.9697 30.9832L30.9652 30.9843L30.9753 30.9921ZM30.9394 30.9787H30.9417L30.9349 30.9742L30.9136 30.9674L30.9394 30.9787ZM41.1512 60.3277L31.7157 33.0665L31.8683 33.5068C31.9446 33.4798 32.0208 33.4495 32.0949 33.4169L43.8985 59.2248C43.0045 59.6336 42.0801 60.0054 41.1512 60.3277ZM49.0005 56.2677L31.0561 31.0966L31.0348 31.0505L31.1503 31.1842L32.5559 33.1508C32.6165 33.107 32.676 33.0598 32.7332 33.0115L51.3137 54.4437C50.5744 55.085 49.797 55.6982 49.0005 56.2677ZM10.7121 54.4651C9.97398 53.8249 9.25715 53.1421 8.58294 52.4356L30.945 31.0505L30.9585 31.0382L30.9563 31.0393L30.9753 31.0191L30.9708 31.027L30.9809 31.018L30.9798 31.0236L30.963 31.0393L30.9619 31.0404L30.9383 31.082L10.7121 54.4651ZM30.9215 31.0786L29.0851 32.8396C29.14 32.8969 29.1984 32.9531 29.259 33.0047L30.9215 31.0786ZM55.3645 50.1883L33.091 32.6341C33.1382 32.5735 33.1819 32.5106 33.2234 32.4466L31.2131 31.1539L31.046 31.0213L31.0337 31.0202L31.0572 31.0528L31.0516 31.0494L31.0213 31.0202V31.0213L31.0146 31.0191V31.0157L31.0123 31.0124L31.0157 31.0112L31.0146 31.009V31.0079L31.0135 31.0056L31.0157 31.0011L31.0112 31.0022V31.0011L31.0101 30.9978L31.0079 30.9989L31.0045 30.9978L31.0011 31.0011L30.9978 30.9978L30.9989 30.9966L30.9978 30.9933H30.9989L30.9944 30.991L30.9955 30.9888L30.9944 30.9843L30.9933 30.9832H30.9944V30.982H30.9966L30.9944 30.9809V30.982L30.9933 30.9798L30.9944 30.9809V30.9798H30.9933L30.991 30.9787L30.9921 30.9742L30.9899 30.9674H30.9966L30.9955 30.9641L31.0067 30.9169L31.009 30.9337L31.0079 30.9102L31.608 28.4135C31.5351 28.3955 31.4599 28.3809 31.3859 28.3697L35.338 0.2673C36.3095 0.404319 37.2855 0.589631 38.239 0.818745L31.0841 30.7024L31.1256 30.7013L43.8357 2.746C44.7287 3.15256 45.6115 3.60742 46.463 4.09822L32.3125 28.692C32.2463 28.655 32.179 28.6201 32.1095 28.5887L31.147 30.7001H31.1582L31.1066 30.79L31.0337 30.9483L31.0617 30.9158L31.1873 30.699L31.2502 30.6979L51.2621 7.51022C52.0002 8.14814 52.7159 8.82987 53.3913 9.53518L31.3197 30.6968L31.4476 30.6945L31.046 30.9596L31.2468 30.8551L31.497 30.6934L31.562 30.6923L33.3479 29.7668C33.3132 29.6994 33.275 29.6332 33.2346 29.5692L57.0383 14.1556C57.57 14.9778 58.0681 15.8369 58.519 16.7062L31.626 30.69L32.0567 30.681L60.7301 22.1971C61.0094 23.1439 61.2461 24.1142 61.4335 25.0823L33.5992 30.4755C33.5846 30.4025 33.5656 30.3295 33.5443 30.2576L32.1072 30.681L32.593 30.6709L31.2726 30.927L31.1313 30.9686H31.2389L32.8027 30.6664L33.6508 30.6485C33.6531 30.7552 33.6542 30.8619 33.6542 30.9674H62V30.9989C62 31.9737 61.954 32.9587 61.8631 33.9268L31.1223 31.0292L31.074 31.0157H31.0527L31.0381 31.0101L31.0471 31.0157H31.037L31.028 31.009L31.0325 31.0079L31.0236 31.0045H31.0224L31.0191 31.0022L31.018 31.0011L31.0191 31.0022L31.0168 31.0011V31.0034L31.0191 31.0022L31.0213 31.0045L31.018 31.0067V31.0101L31.0236 31.009L31.0292 31.0146L31.0438 31.0202L31.0415 31.018L31.0572 31.0225L31.0482 31.0213L31.074 31.0314L57.0764 47.7848C56.5469 48.6092 55.9703 49.4167 55.3645 50.1883ZM31.3298 31.0146L33.643 31.2302C33.6497 31.1572 33.6531 31.0842 33.6542 31.0146H31.3298ZM31.0269 31.0022L31.0348 31.0067L31.0426 31.0056L31.0269 31.0022ZM31.0213 30.9854L31.0236 30.9832L31.0213 30.9854ZM30.9955 30.982L30.9978 30.9832L31 30.9787L30.9955 30.982ZM31.0045 30.9809L31.0079 30.9787L31.0045 30.9809ZM31.0583 30.9674L31.0796 30.9629L31.0583 30.9674ZM31.0247 30.9674L31.0325 30.9663L31.0359 30.9607L31.0247 30.9674ZM31.0034 30.9674L31.0067 30.9607L31.0034 30.9674ZM31.1144 30.9562L31.0987 30.9641L31.1481 30.9495L31.1144 30.9562ZM32.7433 28.9953L31.2704 30.6979L31.3152 30.6968L32.9194 29.1626C32.8633 29.1042 32.8039 29.048 32.7433 28.9953ZM59.7822 42.5354L33.4624 31.9816C33.4915 31.9063 33.5185 31.83 33.542 31.7525L60.7514 39.7333C60.4743 40.6778 60.1479 41.6212 59.7822 42.5354ZM31.0684 31.0696L31.0583 31.0584L31.0684 31.0696ZM31.0258 31.055L31.0135 31.0281V31.027L31.0236 31.0382L31.0258 31.055ZM30.9686 31.046L30.9776 31.0292L30.9764 31.0359L30.9686 31.046ZM31.0292 31.0359L31.0258 31.0337L31.0292 31.0359ZM31.0224 31.0303L31.0135 31.0247V31.0225L31.0224 31.0303ZM30.9776 31.0281L30.9798 31.0236L30.9776 31.0281ZM31.0101 31.0146L31.0056 31.0124L31.0101 31.009H31.0112L31.0079 31.0124L31.0112 31.0112L31.0101 31.0146ZM31.0034 31.0056L31.0022 31.0034L31.0045 31.0045L31.0034 31.0056ZM30.9955 30.9921L30.9933 30.991L30.9944 30.9888L30.9955 30.9921ZM30.9899 30.9899L30.9888 30.9888L30.991 30.9832L30.9944 30.9854L30.9933 30.9865H30.9944V30.9876L30.991 30.9899H30.9899ZM30.9921 30.982L30.991 30.9809L30.9877 30.9764L30.9933 30.9798H30.9921V30.982ZM30.9304 30.9315L30.6511 30.7114L30.7386 30.7091L30.9304 30.9315ZM30.9585 30.8854L30.8766 30.7057H30.8968L30.9585 30.8854ZM31.0045 30.8461L30.9978 30.7035H31.0247L31.0045 30.8461ZM28.4569 30.2498L1.2396 22.2982C1.51556 21.3536 1.83976 20.4113 2.20323 19.4971L28.5365 30.0195C28.5073 30.0948 28.4804 30.1723 28.4569 30.2498ZM29.9029 28.5831L18.0678 2.78867C18.9619 2.37762 19.8863 2.00475 20.8162 1.68129L30.1284 28.4921C30.051 28.5202 29.9758 28.5494 29.9029 28.5831Z" fill="url(#paint0_radial)"/>
<path d="M30.5827 25.3614C29.8523 23.1277 30.1737 20.5351 30.9854 18.1465C31.9147 15.412 33.4465 13.0645 34.5701 12.0057L34.5702 12.0056C35.4965 11.1325 37.1173 10.2252 38.8582 9.596C40.6074 8.96377 42.3718 8.65086 43.5861 8.86818L30.5827 25.3614ZM30.5827 25.3614C30.6425 25.253 30.7071 25.1369 30.7764 25.0138C31.2195 24.2268 31.8532 23.1542 32.615 22.0131C33.3761 20.8732 34.2699 19.6576 35.2343 18.588C36.1943 17.5232 37.2468 16.5776 38.3296 16.0054C39.3663 15.4576 40.3562 15.0652 41.2526 14.7317C41.4594 14.6548 41.6595 14.5815 41.8534 14.5105C42.5116 14.2696 43.0976 14.0552 43.6222 13.814C44.2942 13.505 44.813 13.174 45.1915 12.7417C45.5628 12.3176 45.8266 11.7645 45.9336 10.9625L30.5827 25.3614ZM45.4148 9.57717C44.9943 9.23525 44.3492 9.00524 43.5863 8.86823L45.4148 9.57717ZM45.4148 9.57717C45.8026 9.89248 46.0196 10.3146 45.9336 10.9623L45.4148 9.57717Z" fill="white" stroke="#DC773C"/>
<path d="M30.0058 32C30.0058 32 29.3852 15.1468 41 12" stroke="#DC773C" stroke-miterlimit="10"/>
<path d="M33.9193 29.7686L33.7913 30.752C37.6574 31.7761 40.5 35.212 40.5 39.2398C40.5 41.0169 38.9922 42.5 37.1184 42.5H24.8816C23.0078 42.5 21.5 41.0169 21.5 39.2398C21.5 35.2123 24.3456 31.7762 28.212 30.752L28.0839 29.7686H27.1718C26.7891 29.7686 26.5008 29.4669 26.5008 29.1343C26.5008 28.8018 26.7891 28.5 27.1718 28.5H34.8315C35.2141 28.5 35.5024 28.8018 35.5024 29.1343C35.5024 29.4669 35.2141 29.7686 34.8315 29.7686H33.9193Z" fill="#002666" stroke="#002666"/>
<defs>
<radialGradient id="paint0_radial" cx="0" cy="0" r="1" gradientUnits="userSpaceOnUse" gradientTransform="translate(30.9998 30.9998) scale(30.9819 31.0178)">
<stop stop-color="white"/>
<stop offset="1" stop-color="white" stop-opacity="0"/>
</radialGradient>
</defs>
</svg>
