<svg xmlns="http://www.w3.org/2000/svg" viewBox="0 0 42.49 61.92"><defs><style>.cls-1{fill:#f7b30b;}.cls-2{fill:#fff;stroke:#f7b30b;stroke-miterlimit:10;}</style></defs><title>deco</title><g id="文字"><path class="cls-1" d="M35.83,16.94,21.47,20.81,7.28,16.32l3.87,14.36L6.66,44.87,21,41l14.18,4.49L31.34,31.12ZM21.25,35.59a4.69,4.69,0,1,1,4.69-4.69A4.7,4.7,0,0,1,21.25,35.59Z"/><path class="cls-2" d="M27.34,24.12,21.25,1.89,15.16,24.12,1.25,30.21,15.16,36.3l6.09,23.62L27.34,36.3l13.91-6.09ZM21.25,34A3.06,3.06,0,1,1,24.3,30.9,3.06,3.06,0,0,1,21.25,34Z"/></g></svg>