<svg width="153" height="86" viewBox="0 0 153 86" fill="none" xmlns="http://www.w3.org/2000/svg">
<path d="M152.5 85.1719V1.76929L142.348 0.561579L140.511 85.4864L152.5 85.1719Z" fill="#172951" stroke="#F7B20C"/>
<path d="M128.5 10.6253V84.4281L132.667 85.3752L133.495 11.7517L128.5 10.6253Z" fill="#172951" stroke="#F7B20C"/>
<path d="M115.022 81.2886L120.309 77.3435L82.1287 23.7069L77.6844 27.0291L115.022 81.2886Z" fill="#172951" stroke="#F7B20C"/>
<path d="M73.5 85.1802V6.66348L67.6153 5.59724L66.5073 85.4779L73.5 85.1802Z" fill="#172951" stroke="#F7B20C"/>
<path d="M43.5 82.8651V3.73418L33.3164 2.55959L31.5136 85.3813L43.5 82.8651Z" fill="#172951" stroke="#F7B20C"/>
<path d="M53.5 85.5H59.3879L60.4934 13.7406L53.5 12.5891V85.5Z" fill="#172951" stroke="#F7B20C"/>
<path d="M24.5 85.5V8.63069L19.475 7.61021L18.5063 85.5H24.5Z" fill="#172951" stroke="#F7B20C"/>
<path d="M0.502453 85.4813L11.1126 85.4992L11.4966 8.67005L0.863657 11.811L0.502453 85.4813Z" fill="#172951" stroke="#F7B20C"/>
</svg>
