<svg width="197" height="115" viewBox="0 0 197 115" fill="none" xmlns="http://www.w3.org/2000/svg">
<path d="M159.503 38.6973H184.686C184.686 38.6973 181.536 41.5175 181.536 53.9411C181.536 61.5671 187.574 69.6388 192.231 74.7443C195.525 78.3426 196.829 83.2212 195.779 87.8973L190.123 112.931H156.928L149.976 87.9702C148.655 83.2212 149.832 78.1562 153.118 74.3715C157.614 69.193 163.347 61.4779 163.516 55.6754C163.796 46.0963 159.503 38.6973 159.503 38.6973Z" fill="#172951"/>
<path d="M167.386 1.68565L168.656 11.986L174.135 5.17042L174.092 1.49116L169.977 0L167.386 1.68565Z" fill="#172951"/>
<path d="M157.546 12.1645L168.385 11.9781L161.848 6.08637L158.012 5.76221L156.056 9.53062L157.546 12.1645Z" fill="#172951"/>
<path d="M164.888 22.0914L168.504 12.3179L160.451 16.1106L158.783 19.4333L161.789 22.5047L164.888 22.0914Z" fill="#172951"/>
<path d="M176.692 19.9196L168.893 12.7231L169.164 21.3135L171.628 24.1337L175.803 22.7965L176.692 19.9196Z" fill="#172951"/>
<path d="M178.835 7.93359L169.063 12.399L177.565 15.1706L181.189 13.9468L181.341 9.74081L178.835 7.93359Z" fill="#172951"/>
<path d="M147.893 33.2023L157.419 31.6463L150.823 27.2944L147.402 27.497L146.199 31.0709L147.893 33.2023Z" fill="#172951"/>
<path d="M151.331 40.0584L157.098 32.627L149.18 33.8426L146.851 36.2576L148.57 39.637L151.331 40.0584Z" fill="#172951"/>
<path d="M150.975 23.4935L157.75 31.241L157.792 22.756L155.666 19.7656L151.873 20.7381L150.975 23.4935Z" fill="#172951"/>
<path d="M158.656 32.2788C158.656 32.2788 165.337 34.24 165.777 42.7007" stroke="#172951" stroke-miterlimit="10"/>
<path d="M168.699 13.1368C168.699 13.1368 175.033 9.23875 177.074 39.2077" stroke="#172951" stroke-miterlimit="10"/>
<path d="M25.5516 112.272L18.1237 108.397L44.0569 29.2139L50.3287 32.4934L25.5516 112.272Z" fill="#172951" stroke="#F7B20C"/>
<path d="M54.5 112.142V24.8028L61.2444 23.5959L62.4926 112.478L54.5 112.142Z" fill="#172951" stroke="#F7B20C"/>
<path d="M87.4945 112.5L86.5055 22.5L95.5055 22.5L96.4945 112.5H87.4945Z" fill="#172951" stroke="#F7B20C"/>
<path d="M76.5 112.5H69.7521L68.5066 31.901L76.5 30.5888V112.5Z" fill="#172951" stroke="#F7B20C"/>
<path d="M108.34 26.5001L109.493 112.5H103.5V26.5L108.34 26.5001Z" fill="#172951" stroke="#F7B20C"/>
<path d="M127.498 112.479L115.92 112.499L115.503 26.6757L127.106 30.2044L127.498 112.479Z" fill="#172951" stroke="#F7B20C"/>
</svg>
